The Adventures of Tintin (2011) 1080p MKV AC3+DTS Multi Subs
.
Zowel de SRT-Team als De QoQ-Team Vertaling zit erin Kun je Kiezen.
.
[IMG]http://img35.imageshack.us/img35/7786/99779419.jpg[/IMG]
.
Verenigde Staten / Nieuw-Zeeland
Animatie / Avontuur
107 minuten

geregisseerd door Steven Spielberg
met Jamie Bell, Andy Serkis en Daniel Craig

De nieuwsgierige reporter Kuifje en zijn trouwe hondje Bobbie ontdekken dat een model van het prachtige oude zeilschip 'De Eenhoorn' een geheim met zich meedraagt. Meegevoerd in een eeuwenoud mysterie, krijgt hij het aan de stok met de boosaardige Sacharin, die weet dat Kuifje een belangrijke aanwijzing bezit naar de grote schat van de snode piraat Scharlaken Rackham. Geholpen door de moedige Bobbie, de onstuimige kapitein Haddock en de stuntelige detectives Jansen en Janssen, reist Kuifje de halve wereld af, constant op de hielen gezeten door de vijand. Hij moet slimmer en sneller zijn dan de rest om het Geheim van de Eenhoorn te ontrafelen...

Momenteel te zien in 6 bioscopen

Vanaf 28 februari te huur
Vanaf 27 februari te koop op DVD en Blu-Ray
. 
http://www.moviemeter.nl/film/71340
.
PLOT
.
Intrepid reporter Tintin and Captain Haddock set off on a treasure hunt for a sunken ship commanded by Haddock's ancestor. 
. 
http://www.imdb.com/title/tt0983193/
.
INFO
.
Format                           : Matroska
Format version                   : Version 2
File size                        : 8.42 GiB
Duration                         : 1h 46mn
Overall bit rate                 : 11.3 Mbps
Encoded date                     : UTC 2012-02-22 05:24:36
Writing application              : mkvmerge v5.2.0 ('I can't explain') built on Dec 18 2011 18:12:03
Writing library                  : libebml v1.2.3 + libmatroska v1.3.0

Video
ID                               : 1
Format                           : AVC
Format/Info                      : Advanced Video Codec
Format profile                   : High@L4.1
Format settings, CABAC           : Yes
Format settings, ReFrames        : 5 frames
Codec ID                         : V_MPEG4/ISO/AVC
Duration                         : 1h 46mn
Bit rate                         : 9 125 Kbps
Width                            : 1 920 pixels
Height                           : 816 pixels
Display aspect ratio             : 2.35:1
Frame rate                       : 23.976 fps
Color space                      : YUV
Chroma subsampling               : 4:2:0
Bit depth                        : 8 bits
Scan type                        : Progressive
Bits/(Pixel*Frame)               : 0.243
Stream size                      : 6.64 GiB (79%)
Writing library                  : x264 core 120 r2146 bcd41db
Encoding settings                : cabac=1 / ref=5 / deblock=1:0:0 / analyse=0x3:0x113 / me=umh / subme=7 / psy=1 / psy_rd=1.00:0.15 / mixed_ref=1 / me_range=16 / chroma_me=1 / trellis=1 / 8x8dct=1 / cqm=0 / deadzone=21,11 / fast_pskip=0 / chroma_qp_offset=-3 / threads=12 / sliced_threads=0 / nr=0 / decimate=1 / interlaced=0 / bluray_compat=0 / constrained_intra=0 / bframes=3 / b_pyramid=2 / b_adapt=1 / b_bias=0 / direct=1 / weightb=1 / open_gop=0 / weightp=2 / keyint=250 / keyint_min=23 / scenecut=40 / intra_refresh=0 / rc_lookahead=40 / rc=2pass / mbtree=1 / bitrate=9125 / ratetol=1.0 / qcomp=0.60 / qpmin=0 / qpmax=69 / qpstep=4 / cplxblur=20.0 / qblur=0.5 / ip_ratio=1.40 / aq=1:1.00
Language                         : English
Default                          : Yes
Forced                           : No

Audio #1
ID                               : 2
Format                           : DTS
Format/Info                      : Digital Theater Systems
Codec ID                         : A_DTS
Duration                         : 1h 46mn
Bit rate mode                    : Constant
Bit rate                         : 1 510 Kbps
Channel(s)                       : 6 channels
Channel positions                : Front: L C R, Side: L R, LFE
Sampling rate                    : 48.0 KHz
Bit depth                        : 24 bits
Compression mode                 : Lossy
Delay relative to video          : 11ms
Stream size                      : 1.13 GiB (13%)
Title                            : DTS
Language                         : English
Default                          : Yes
Forced                           : No

Audio #2
ID                               : 3
Format                           : AC-3
Format/Info                      : Audio Coding 3
Mode extension                   : CM (complete main)
Codec ID                         : A_AC3
Duration                         : 1h 46mn
Bit rate mode                    : Constant
Bit rate                         : 640 Kbps
Channel(s)                       : 6 channels
Channel positions                : Front: L C R, Side: L R, LFE
Sampling rate                    : 48.0 KHz
Bit depth                        : 16 bits
Compression mode                 : Lossy
Stream size                      : 489 MiB (6%)
Title                            : AC3
Language                         : English
Default                          : No
Forced                           : No

Text #1
ID                               : 4
Format                           : UTF-8
Codec ID                         : S_TEXT/UTF8
Codec ID/Info                    : UTF-8 Plain Text
Title                            : QoQ-Team
Language                         : Dutch
Default                          : No
Forced                           : No

Text #2
ID                               : 5
Format                           : UTF-8
Codec ID                         : S_TEXT/UTF8
Codec ID/Info                    : UTF-8 Plain Text
Title                            : SRT-TEAM
Language                         : Dutch
Default                          : No
Forced                           : No

Text #3
ID                               : 6
Format                           : UTF-8
Codec ID                         : S_TEXT/UTF8
Codec ID/Info                    : UTF-8 Plain Text
Title                            : English
Language                         : English
Default                          : No
Forced                           : No

Text #4
ID                               : 7
Format                           : UTF-8
Codec ID                         : S_TEXT/UTF8
Codec ID/Info                    : UTF-8 Plain Text
Language                         : Bulgarian
Default                          : No
Forced                           : No

Text #5
ID                               : 8
Format                           : UTF-8
Codec ID                         : S_TEXT/UTF8
Codec ID/Info                    : UTF-8 Plain Text
Language                         : Portuguese
Default                          : No
Forced                           : No

Text #6
ID                               : 9
Format                           : UTF-8
Codec ID                         : S_TEXT/UTF8
Codec ID/Info                    : UTF-8 Plain Text
Language                         : Romanian
Default                          : No
Forced                           : No

Text #7
ID                               : 10
Format                           : UTF-8
Codec ID                         : S_TEXT/UTF8
Codec ID/Info                    : UTF-8 Plain Text
Title                            : SERBIAN
Default                          : No
Forced                           : No

Menu
00:00:00.000                     : en:00:00:00.000
00:05:39.297                     : en:00:05:39.297
00:12:12.315                     : en:00:12:12.315
00:17:11.364                     : en:00:17:11.364
00:25:36.869                     : en:00:25:36.869
00:32:37.581                     : en:00:32:37.581
00:37:55.315                     : en:00:37:55.315
00:42:29.839                     : en:00:42:29.839
00:50:52.508                     : en:00:50:52.508
00:56:27.217                     : en:00:56:27.217
01:02:19.611                     : en:01:02:19.611
01:11:58.981                     : en:01:11:58.981
01:20:03.966                     : en:01:20:03.966
01:27:30.996                     : en:01:27:30.996
01:34:12.814                     : en:01:34:12.814
01:40:30.483                     : en:01:40:30.483
.
Enjoy
